<svg width="83" height="35" viewBox="0 0 83 35" fill="none" xmlns="http://www.w3.org/2000/svg">
<mask id="path-1-inside-1_2001_7513" fill="white">
<path d="M0.19043 11.7998H26.1004V12.7998H0.19043V11.7998Z"/>
</mask>
<path d="M26.1004 11.7998H0.19043V13.7998H26.1004V11.7998Z" fill="black" mask="url(#path-1-inside-1_2001_7513)"/>
<path d="M49.7715 16.2269C49.7021 15.5588 49.4592 15.0772 49.0427 14.7822C48.6348 14.4785 48.1099 14.3266 47.4678 14.3266C47.2075 14.3266 46.9515 14.3527 46.6998 14.4047C46.4482 14.4568 46.2226 14.5436 46.023 14.665C45.8321 14.7865 45.6759 14.9514 45.5545 15.1596C45.4417 15.3592 45.3853 15.6108 45.3853 15.9145C45.3853 16.2009 45.4677 16.4352 45.6326 16.6174C45.8061 16.7909 46.0317 16.9341 46.3094 17.0469C46.5957 17.1597 46.9168 17.2551 47.2725 17.3332C47.6283 17.4027 47.9884 17.4808 48.3528 17.5675C48.7259 17.6543 49.0904 17.7584 49.4461 17.8799C49.8019 17.9927 50.1186 18.1489 50.3963 18.3485C50.6826 18.548 50.9082 18.7997 51.0731 19.1034C51.2466 19.4071 51.3334 19.7889 51.3334 20.2487C51.3334 20.7433 51.2206 21.1685 50.995 21.5243C50.7781 21.8714 50.4961 22.1577 50.149 22.3833C49.8019 22.6002 49.4114 22.7564 48.9776 22.8519C48.5524 22.956 48.1272 23.0081 47.702 23.0081C47.1814 23.0081 46.6868 22.943 46.2183 22.8128C45.7584 22.6827 45.3506 22.4874 44.9948 22.2271C44.6477 21.9581 44.37 21.6197 44.1618 21.2119C43.9622 20.7954 43.8624 20.3051 43.8624 19.7411H45.0338C45.0338 20.1316 45.1076 20.47 45.2551 20.7564C45.4113 21.034 45.6109 21.264 45.8538 21.4462C46.1055 21.6284 46.3961 21.7629 46.7259 21.8497C47.0556 21.9364 47.394 21.9798 47.7411 21.9798C48.0188 21.9798 48.2964 21.9538 48.5741 21.9017C48.8604 21.8497 49.1164 21.7629 49.342 21.6414C49.5676 21.5113 49.7498 21.3377 49.8887 21.1208C50.0275 20.9039 50.0969 20.6262 50.0969 20.2878C50.0969 19.9667 50.0102 19.7064 49.8366 19.5069C49.6717 19.3073 49.4461 19.1468 49.1598 19.0253C48.8821 18.8951 48.5654 18.791 48.2097 18.7129C47.8539 18.6348 47.4895 18.5567 47.1163 18.4786C46.7519 18.3918 46.3918 18.2964 46.036 18.1923C45.6803 18.0795 45.3592 17.9363 45.0729 17.7628C44.7952 17.5805 44.5696 17.3506 44.3961 17.0729C44.2312 16.7866 44.1488 16.4308 44.1488 16.0056C44.1488 15.5371 44.2442 15.1336 44.4351 14.7952C44.626 14.4481 44.8777 14.1661 45.19 13.9492C45.5111 13.7236 45.8712 13.5587 46.2703 13.4546C46.6782 13.3418 47.0947 13.2854 47.5198 13.2854C47.9971 13.2854 48.4396 13.3418 48.8474 13.4546C49.2552 13.5674 49.611 13.7453 49.9147 13.9882C50.2271 14.2312 50.47 14.5392 50.6436 14.9123C50.8258 15.2768 50.9256 15.715 50.9429 16.2269H49.7715ZM53.1159 13.5066H54.3524V17.5024H59.2463V13.5066H60.4827V22.7998H59.2463V18.5437H54.3524V22.7998H53.1159V13.5066ZM63.5049 18.1532C63.5049 18.6218 63.5656 19.086 63.6871 19.5459C63.8086 19.9971 63.9995 20.4049 64.2598 20.7694C64.5201 21.1338 64.8542 21.4288 65.262 21.6544C65.6698 21.8714 66.1557 21.9798 66.7197 21.9798C67.2837 21.9798 67.7697 21.8714 68.1775 21.6544C68.5853 21.4288 68.9194 21.1338 69.1797 20.7694C69.44 20.4049 69.6309 19.9971 69.7524 19.5459C69.8738 19.086 69.9346 18.6218 69.9346 18.1532C69.9346 17.6847 69.8738 17.2248 69.7524 16.7736C69.6309 16.3137 69.44 15.9015 69.1797 15.5371C68.9194 15.1726 68.5853 14.882 68.1775 14.665C67.7697 14.4394 67.2837 14.3266 66.7197 14.3266C66.1557 14.3266 65.6698 14.4394 65.262 14.665C64.8542 14.882 64.5201 15.1726 64.2598 15.5371C63.9995 15.9015 63.8086 16.3137 63.6871 16.7736C63.5656 17.2248 63.5049 17.6847 63.5049 18.1532ZM62.2684 18.1532C62.2684 17.5198 62.3595 16.9124 62.5417 16.331C62.7326 15.741 63.0146 15.2204 63.3877 14.7692C63.7608 14.318 64.2251 13.9579 64.7804 13.6889C65.3357 13.4199 65.9822 13.2854 66.7197 13.2854C67.4573 13.2854 68.1037 13.4199 68.6591 13.6889C69.2144 13.9579 69.6786 14.318 70.0517 14.7692C70.4248 15.2204 70.7025 15.741 70.8847 16.331C71.0756 16.9124 71.1711 17.5198 71.1711 18.1532C71.1711 18.7867 71.0756 19.3984 70.8847 19.9884C70.7025 20.5698 70.4248 21.0861 70.0517 21.5373C69.6786 21.9885 69.2144 22.3486 68.6591 22.6176C68.1037 22.8779 67.4573 23.0081 66.7197 23.0081C65.9822 23.0081 65.3357 22.8779 64.7804 22.6176C64.2251 22.3486 63.7608 21.9885 63.3877 21.5373C63.0146 21.0861 62.7326 20.5698 62.5417 19.9884C62.3595 19.3984 62.2684 18.7867 62.2684 18.1532ZM74.1943 17.958H76.6152C77.3181 17.9667 77.83 17.8235 78.1511 17.5285C78.4808 17.2335 78.6457 16.8083 78.6457 16.2529C78.6457 15.6976 78.4808 15.2768 78.1511 14.9904C77.83 14.6954 77.3181 14.5479 76.6152 14.5479H74.1943V17.958ZM72.9578 13.5066H77.0317C77.9689 13.5066 78.676 13.7496 79.1533 14.2355C79.6392 14.7128 79.8821 15.3852 79.8821 16.2529C79.8821 17.1207 79.6392 17.7975 79.1533 18.2834C78.676 18.7693 77.9689 19.0079 77.0317 18.9992H74.1943V22.7998H72.9578V13.5066Z" fill="black"/>
<path d="M44.4659 13.1162H46.229L49.2805 21.2537L52.3457 13.1162H54.1088V22.7998H52.8882V14.7437H52.861L49.8366 22.7998H48.738L45.7136 14.7437H45.6865V22.7998H44.4659V13.1162ZM56.5329 13.1162H63.2193V14.2012H57.8214V17.2799H62.8531V18.3649H57.8214V21.7148H63.2599V22.7998H56.5329V13.1162ZM65.0905 13.1162H66.4603L71.5598 20.9689H71.587V13.1162H72.8076V22.7998H71.3971L66.3383 15.0285H66.3111V22.7998H65.0905V13.1162ZM82.9025 19.3007C82.9025 20.5394 82.5725 21.4707 81.9124 22.0946C81.2524 22.7094 80.312 23.0168 79.0914 23.0168C77.8437 23.0168 76.8672 22.723 76.1619 22.1352C75.4657 21.5385 75.1176 20.5936 75.1176 19.3007V13.1162H76.406V19.3007C76.406 20.1687 76.6366 20.8287 77.0977 21.2808C77.5589 21.7238 78.2234 21.9454 79.0914 21.9454C79.9142 21.9454 80.5381 21.7238 80.963 21.2808C81.397 20.8287 81.614 20.1687 81.614 19.3007V13.1162H82.9025V19.3007Z" fill="black"/>
<mask id="path-5-inside-2_2001_7513" fill="white">
<path d="M0.19043 20.7998H26.1004V21.7998H0.19043V20.7998Z"/>
</mask>
<path d="M26.1004 20.7998H0.19043V22.7998H26.1004V20.7998Z" fill="black" mask="url(#path-5-inside-2_2001_7513)"/>
</svg>
