<svg width="66" height="39" viewBox="0 0 66 39" fill="none" xmlns="http://www.w3.org/2000/svg">
<g clip-path="url(#clip0_2001_7520)">
<path d="M25.1032 28.0634C24.9048 24.4775 26.3292 21.5763 29.3042 19.7022C31.1614 18.549 33.325 17.8642 35.4165 17.1254C36.9491 16.5848 37.1475 16.5127 37.1475 14.8549C37.1475 11.0888 37.1475 7.3407 37.1475 3.57457C37.1475 2.11497 36.8229 1.7726 35.3264 1.79062C33.0546 1.80864 30.8909 2.20507 28.9797 3.52051C28.4208 3.91695 27.9339 4.40348 27.5192 4.7819C28.6551 4.70982 29.8091 4.40348 30.8909 4.58368C33.289 4.98011 34.8215 7.30466 34.479 9.68326C34.1364 12.1159 32.0088 13.8098 29.5026 13.6296C27.1947 13.4674 25.3195 11.4492 25.3376 9.05257C25.3556 6.09734 26.6898 3.79081 29.3403 2.49339C33.6676 0.4031 38.067 0.547258 42.2861 2.78171C44.8284 4.11517 45.9643 6.43971 45.9283 9.30485C45.8742 12.188 44.6301 14.4405 42.0337 15.6658C40.3028 16.4947 38.3916 16.9272 36.5525 17.5218C34.8937 18.0624 33.2168 18.549 31.558 19.1076C30.9089 19.3238 30.3139 19.7022 30.5123 20.5311C30.6926 21.3601 31.3597 21.4321 32.0629 21.4321C36.1197 21.4321 40.1766 21.4321 44.2334 21.4321C44.612 21.4321 45.0087 21.4321 45.6037 21.4321C43.5663 23.7567 41.6731 25.919 39.7799 28.0634C34.8937 28.0634 30.0074 28.0634 25.1032 28.0634Z" fill="black"/>
<path d="M0.0947266 27.8477C1.21261 25.5231 2.3305 23.1805 3.43035 20.856C5.01702 17.4863 6.56764 14.1166 8.15431 10.7109C7.86583 10.0802 7.59537 9.46752 7.27082 8.74673C10.7327 7.73762 10.6425 4.18773 12.3915 1.82715C13.0946 3.34081 13.7798 4.81842 14.465 6.29604C17.7104 13.3057 20.9559 20.3154 24.2014 27.3431C24.3095 27.5774 24.3636 27.8116 24.4358 28.0639C21.6591 28.0639 18.8824 28.0639 16.1057 28.0639C15.2583 26.1358 14.4109 24.2257 13.5634 22.2976C10.1737 22.2976 6.91022 22.2976 3.5205 22.2976C2.67307 24.2077 1.82564 26.1358 0.978216 28.0639C0.671699 27.9918 0.383213 27.9197 0.0947266 27.8477ZM8.55098 11.5578C6.96431 14.9635 5.48581 18.1891 3.95323 21.4687C7.07249 21.4687 10.0295 21.4687 13.1307 21.4687C11.6161 18.1711 10.1377 14.9816 8.55098 11.5578Z" fill="black"/>
<path d="M56.4753 28.0639C56.4753 25.9196 56.4753 23.7572 56.4753 21.5048C52.9233 21.5048 49.4435 21.5048 45.585 21.5048C51.8054 14.5311 57.8096 7.80976 63.976 0.908203C63.976 7.59353 63.976 14.0626 63.976 20.6038C64.6972 20.6038 65.3102 20.6038 65.9052 20.6038C65.9052 20.8921 65.9052 21.1804 65.9052 21.4867C65.3102 21.4867 64.6972 21.4867 63.9219 21.4867C63.9219 23.7392 63.9219 25.9016 63.9219 28.0639C61.4517 28.0639 58.9635 28.0639 56.4753 28.0639ZM56.4032 20.6398C56.4032 17.2881 56.4032 14.0086 56.4032 10.4767C53.32 13.9185 50.381 17.2161 47.3339 20.6398C50.5073 20.6398 53.4282 20.6398 56.4032 20.6398Z" fill="black"/>
</g>
<defs>
<clipPath id="clip0_2001_7520">
<rect width="66" height="27.39" fill="white" transform="translate(0 0.799805)"/>
</clipPath>
</defs>
</svg>
