<svg width="23" height="24" viewBox="0 0 23 24" fill="none" xmlns="http://www.w3.org/2000/svg">
<g clip-path="url(#clip0_2001_6602)">
<path d="M11.5796 3.14551C14.5371 3.14551 14.8843 3.15869 16.0532 3.21143C17.1343 3.25977 17.7188 3.43994 18.1099 3.59375C18.6284 3.7959 18.9976 4.0332 19.3843 4.41992C19.771 4.80664 20.0127 5.17578 20.2104 5.69434C20.3599 6.08545 20.5444 6.66992 20.5928 7.75098C20.6455 8.91992 20.6587 9.26709 20.6587 12.2246C20.6587 15.1821 20.6455 15.5293 20.5928 16.6982C20.5444 17.7793 20.3643 18.3638 20.2104 18.7549C20.0083 19.2734 19.771 19.6426 19.3843 20.0293C18.9976 20.416 18.6284 20.6577 18.1099 20.8555C17.7188 21.0049 17.1343 21.1895 16.0532 21.2378C14.8843 21.2905 14.5371 21.3037 11.5796 21.3037C8.62207 21.3037 8.2749 21.2905 7.10596 21.2378C6.0249 21.1895 5.44043 21.0093 5.04932 20.8555C4.53076 20.6533 4.16162 20.416 3.7749 20.0293C3.38818 19.6426 3.14648 19.2734 2.94873 18.7549C2.79932 18.3638 2.61475 17.7793 2.56641 16.6982C2.51367 15.5293 2.50049 15.1821 2.50049 12.2246C2.50049 9.26709 2.51367 8.91992 2.56641 7.75098C2.61475 6.66992 2.79492 6.08545 2.94873 5.69434C3.15088 5.17578 3.38818 4.80664 3.7749 4.41992C4.16162 4.0332 4.53076 3.7915 5.04932 3.59375C5.44043 3.44434 6.0249 3.25977 7.10596 3.21143C8.2749 3.1543 8.62207 3.14551 11.5796 3.14551ZM11.5796 1.15039C8.57373 1.15039 8.1958 1.16357 7.01367 1.21631C5.83594 1.26904 5.03174 1.45801 4.32861 1.73047C3.59912 2.01172 2.98389 2.39404 2.36865 3.00928C1.75342 3.62451 1.37549 4.24414 1.08984 4.96924C0.817383 5.67236 0.628418 6.47656 0.575684 7.65869C0.522949 8.83643 0.509766 9.21436 0.509766 12.2202C0.509766 15.2261 0.522949 15.604 0.575684 16.7861C0.628418 17.9639 0.817383 18.7681 1.08984 19.4756C1.37109 20.2051 1.75342 20.8203 2.36865 21.4355C2.98389 22.0508 3.60352 22.4287 4.32861 22.7144C5.03174 22.9868 5.83594 23.1758 7.01807 23.2285C8.20019 23.2812 8.57373 23.2944 11.584 23.2944C14.5942 23.2944 14.9678 23.2812 16.1499 23.2285C17.3276 23.1758 18.1318 22.9868 18.8394 22.7144C19.5688 22.4331 20.1841 22.0508 20.7993 21.4355C21.4146 20.8203 21.7925 20.2007 22.0781 19.4756C22.3506 18.7725 22.5396 17.9683 22.5923 16.7861C22.645 15.604 22.6582 15.2305 22.6582 12.2202C22.6582 9.20996 22.645 8.83643 22.5923 7.6543C22.5396 6.47656 22.3506 5.67236 22.0781 4.96484C21.7969 4.23535 21.4146 3.62012 20.7993 3.00488C20.1841 2.38965 19.5645 2.01172 18.8394 1.72607C18.1362 1.45361 17.332 1.26465 16.1499 1.21191C14.9634 1.16357 14.5854 1.15039 11.5796 1.15039Z" fill="black"/>
<path d="M11.5801 6.53516C8.44238 6.53516 5.89355 9.07959 5.89355 12.2217C5.89355 15.3638 8.44238 17.9082 11.5801 17.9082C14.7178 17.9082 17.2666 15.3594 17.2666 12.2217C17.2666 9.08398 14.7178 6.53516 11.5801 6.53516ZM11.5801 15.9131C9.54102 15.9131 7.88867 14.2607 7.88867 12.2217C7.88867 10.1826 9.54102 8.53027 11.5801 8.53027C13.6191 8.53027 15.2715 10.1826 15.2715 12.2217C15.2715 14.2607 13.6191 15.9131 11.5801 15.9131Z" fill="black"/>
<path d="M17.4902 7.63672C18.2232 7.63672 18.8174 7.04253 18.8174 6.30957C18.8174 5.57661 18.2232 4.98242 17.4902 4.98242C16.7573 4.98242 16.1631 5.57661 16.1631 6.30957C16.1631 7.04253 16.7573 7.63672 17.4902 7.63672Z" fill="black"/>
</g>
<defs>
<clipPath id="clip0_2001_6602">
<rect width="22.5" height="22.5" fill="white" transform="translate(0.330078 0.970703)"/>
</clipPath>
</defs>
</svg>
