<svg width="23" height="24" viewBox="0 0 23 24" fill="none" xmlns="http://www.w3.org/2000/svg">
<g clip-path="url(#clip0_2001_6607)">
<path d="M21.8674 10.7273V6.89391C20.0721 6.89391 18.7024 6.41484 17.8179 5.48344C16.9106 4.42051 16.4024 3.07449 16.3807 1.67719V1.40062L12.7563 1.3125V16.883C12.632 17.5624 12.3022 18.1874 11.8114 18.6734C11.3206 19.1595 10.6926 19.4833 10.0119 19.6011C9.33133 19.7188 8.63096 19.625 8.0054 19.3321C7.37983 19.0392 6.85919 18.5615 6.51376 17.9633C6.16833 17.3652 6.01475 16.6754 6.07375 15.9872C6.13275 15.299 6.40149 14.6455 6.84368 14.1148C7.28588 13.5842 7.88024 13.202 8.54653 13.0199C9.21282 12.8378 9.91894 12.8645 10.5696 13.0964V9.38438C10.1902 9.32231 9.80648 9.2908 9.42207 9.29016C8.03923 9.29025 6.68747 9.70039 5.53772 10.4687C4.38798 11.2371 3.49188 12.3291 2.96276 13.6067C2.43363 14.8843 2.29524 16.2901 2.56507 17.6464C2.83491 19.0026 3.50086 20.2484 4.47871 21.2262C5.45656 22.204 6.70239 22.8699 8.05867 23.1396C9.41495 23.4093 10.8208 23.2708 12.0983 22.7416C13.3759 22.2124 14.4678 21.3163 15.2361 20.1665C16.0044 19.0167 16.4144 17.6649 16.4144 16.282C16.4135 15.9956 16.3954 15.7094 16.36 15.4252V9.24938C18.0082 10.2786 19.9253 10.7932 21.8674 10.7273Z" fill="black"/>
</g>
<defs>
<clipPath id="clip0_2001_6607">
<rect width="22.5" height="22.5" fill="white" transform="translate(0.429688 0.970703)"/>
</clipPath>
</defs>
</svg>
