<svg width="23" height="21" viewBox="0 0 23 21" fill="none" xmlns="http://www.w3.org/2000/svg">
<path d="M0.32422 16.895C0.32422 17.7732 0.61413 18.5201 1.19395 19.1356C1.77377 19.751 2.47962 20.0584 3.3115 20.0577H19.3201C20.152 20.0577 20.8578 19.7503 21.4376 19.1356C22.0175 18.5208 22.3074 17.774 22.3074 16.895V4.15655C22.3074 3.27833 22.0146 2.52292 21.4291 1.89031C20.8435 1.25771 20.1405 0.941406 19.3201 0.941406H3.3115C2.49176 0.941406 1.78876 1.25771 1.20252 1.89031C0.616272 2.52292 0.323506 3.27833 0.32422 4.15655V16.895ZM8.31994 14.5934V6.45813C8.31994 6.37602 8.34351 6.31176 8.39064 6.26535C8.42563 6.25392 8.4549 6.24821 8.47847 6.24821L8.5663 6.26535L16.2278 10.3416C16.275 10.3887 16.2985 10.4472 16.2985 10.5172C16.2985 10.5643 16.275 10.6111 16.2278 10.6575L8.5663 14.7337C8.54273 14.7573 8.51917 14.7691 8.4956 14.7691C8.44848 14.7691 8.41349 14.7573 8.39064 14.7337C8.34351 14.6866 8.31994 14.6399 8.31994 14.5934Z" fill="black"/>
</svg>
