<svg width="21" height="21" viewBox="0 0 21 21" fill="none" xmlns="http://www.w3.org/2000/svg">
<g clip-path="url(#clip0_2001_4541)">
<path d="M13.5303 12.375C12.4092 12.375 11.8701 13 10.0303 13C8.19043 13 7.65527 12.375 6.53027 12.375C3.63184 12.375 1.28027 14.7266 1.28027 17.625V18.625C1.28027 19.6602 2.12012 20.5 3.15527 20.5H16.9053C17.9404 20.5 18.7803 19.6602 18.7803 18.625V17.625C18.7803 14.7266 16.4287 12.375 13.5303 12.375ZM16.9053 18.625H3.15527V17.625C3.15527 15.7656 4.6709 14.25 6.53027 14.25C7.10059 14.25 8.02637 14.875 10.0303 14.875C12.0498 14.875 12.9561 14.25 13.5303 14.25C15.3896 14.25 16.9053 15.7656 16.9053 17.625V18.625ZM10.0303 11.75C13.1357 11.75 15.6553 9.23047 15.6553 6.125C15.6553 3.01953 13.1357 0.5 10.0303 0.5C6.9248 0.5 4.40527 3.01953 4.40527 6.125C4.40527 9.23047 6.9248 11.75 10.0303 11.75ZM10.0303 2.375C12.0967 2.375 13.7803 4.05859 13.7803 6.125C13.7803 8.19141 12.0967 9.875 10.0303 9.875C7.96387 9.875 6.28027 8.19141 6.28027 6.125C6.28027 4.05859 7.96387 2.375 10.0303 2.375Z" fill="black" stroke="black" stroke-width="0.0390625"/>
</g>
<defs>
<clipPath id="clip0_2001_4541">
<rect width="20" height="20" fill="white" transform="translate(0.0302734 0.5)"/>
</clipPath>
</defs>
</svg>
