<svg width="58" height="45" viewBox="0 0 58 45" fill="none" xmlns="http://www.w3.org/2000/svg">
<g clip-path="url(#clip0_2001_5399)">
<path opacity="0.07" d="M45 10.6289H13C11.3 10.6289 10 11.9289 10 13.6289V31.6289C10 33.3289 11.4 34.6289 13 34.6289H45C46.7 34.6289 48 33.3289 48 31.6289V13.6289C48 11.9289 46.6 10.6289 45 10.6289Z" fill="black"/>
<path d="M45 11.6289C46.1 11.6289 47 12.5289 47 13.6289V31.6289C47 32.7289 46.1 33.6289 45 33.6289H13C11.9 33.6289 11 32.7289 11 31.6289V13.6289C11 12.5289 11.9 11.6289 13 11.6289H45Z" fill="#006FCF"/>
<path d="M32.0117 30.5655V22.1445L46.9997 22.1575V24.4835L45.2677 26.3355L46.9997 28.2025V30.5775H44.2337L42.7637 28.9555L41.3037 30.5835L32.0117 30.5635V30.5655Z" fill="white"/>
<path d="M33.0127 29.6403V23.0703H38.5847V24.5833H34.8167V25.6113H38.4947V27.0993H34.8167V28.1093H38.5847V29.6403H33.0127Z" fill="#006FCF"/>
<path d="M38.5566 29.6413L41.6396 26.3523L38.5566 23.0703H40.9426L42.8266 25.1533L44.7166 23.0713H46.9996V23.1223L43.9826 26.3523L46.9996 29.5493V29.6423H44.6926L42.7756 27.5393L40.8776 29.6433H38.5566V29.6413Z" fill="#006FCF"/>
<path d="M32.71 14.668H36.324L37.593 17.549V14.668H42.053L42.823 16.827L43.594 14.668H47V23.089H29L32.71 14.668Z" fill="white"/>
<path d="M33.3945 15.584L30.4785 22.15H32.4785L33.0285 20.835H36.0085L36.5585 22.15H38.6085L35.7045 15.584H33.3945ZM33.6445 19.361L34.5195 17.271L35.3925 19.361H33.6445Z" fill="#006FCF"/>
<path d="M38.5811 22.149V15.582L41.3921 15.592L42.8401 19.629L44.2961 15.583H47.0001V22.148L45.2601 22.164V17.654L43.6161 22.148H42.0261L40.3501 17.639V22.149H38.5821H38.5811Z" fill="#006FCF"/>
</g>
<defs>
<clipPath id="clip0_2001_5399">
<rect width="38" height="24" fill="white" transform="translate(10 10.6289)"/>
</clipPath>
</defs>
</svg>
