<svg width="21" height="21" viewBox="0 0 21 21" fill="none" xmlns="http://www.w3.org/2000/svg">
<g clip-path="url(#clip0_2001_4546)">
<path d="M15.0303 5.5C15.0303 2.74297 12.7873 0.5 10.0303 0.5C7.27324 0.5 5.03027 2.74297 5.03027 5.5H1.28027V17.375C1.28027 19.1009 2.67938 20.5 4.40527 20.5H15.6553C17.3812 20.5 18.7803 19.1009 18.7803 17.375V5.5H15.0303ZM10.0303 2.375C11.7534 2.375 13.1553 3.77688 13.1553 5.5H6.90527C6.90527 3.77688 8.30715 2.375 10.0303 2.375ZM16.9053 17.375C16.9053 18.0643 16.3445 18.625 15.6553 18.625H4.40527C3.71602 18.625 3.15527 18.0643 3.15527 17.375V7.375H5.03027V8.9375C5.03027 9.45527 5.45 9.875 5.96777 9.875C6.48555 9.875 6.90527 9.45527 6.90527 8.9375V7.375H13.1553V8.9375C13.1553 9.45527 13.575 9.875 14.0928 9.875C14.6105 9.875 15.0303 9.45527 15.0303 8.9375V7.375H16.9053V17.375Z" fill="black" stroke="black" stroke-width="0.0390625"/>
</g>
<defs>
<clipPath id="clip0_2001_4546">
<rect width="20" height="20" fill="white" transform="translate(0.0302734 0.5)"/>
</clipPath>
</defs>
</svg>
