<svg width="58" height="45" viewBox="0 0 58 45" fill="none" xmlns="http://www.w3.org/2000/svg">
<g clip-path="url(#clip0_2001_5422)">
<path d="M45 11.6289H13C11.8954 11.6289 11 12.5243 11 13.6289V31.6289C11 32.7335 11.8954 33.6289 13 33.6289H45C46.1046 33.6289 47 32.7335 47 31.6289V13.6289C47 12.5243 46.1046 11.6289 45 11.6289Z" fill="url(#paint0_linear_2001_5422)"/>
<path d="M45 11.1289H13C11.6193 11.1289 10.5 12.2482 10.5 13.6289V31.6289C10.5 33.0096 11.6193 34.1289 13 34.1289H45C46.3807 34.1289 47.5 33.0096 47.5 31.6289V13.6289C47.5 12.2482 46.3807 11.1289 45 11.1289Z" stroke="black" stroke-opacity="0.07"/>
<path fill-rule="evenodd" clip-rule="evenodd" d="M38 20.5629C38 21.6299 37.2 22.4949 36.21 22.4969V22.4989H29.69V18.6289H36.21C37.2 18.6309 38 19.4959 38 20.5629ZM38 24.6669C38 25.7339 37.2 26.5989 36.21 26.6009V26.6039H29.69V22.7339H36.21C37.2 22.7359 38 23.6009 38 24.6669ZM24.776 22.7329H29.564V23.1109C29.564 25.0539 28.104 26.6289 26.304 26.6289H23.26C21.46 26.6289 20 25.0539 20 23.1109V22.1729C20 20.2299 21.46 18.6549 23.26 18.6549H26.304C28.104 18.6549 29.564 20.2299 29.564 22.1729V22.4989H24.776V22.7329Z" fill="white"/>
</g>
<defs>
<linearGradient id="paint0_linear_2001_5422" x1="47" y1="11.6289" x2="27.422" y2="43.6649" gradientUnits="userSpaceOnUse">
<stop stop-color="#083969"/>
<stop offset="0.492" stop-color="#007B9D"/>
<stop offset="1" stop-color="#00A84A"/>
</linearGradient>
<clipPath id="clip0_2001_5422">
<rect width="38" height="24" fill="white" transform="translate(10 10.6289)"/>
</clipPath>
</defs>
</svg>
