<svg width="58" height="45" viewBox="0 0 58 45" fill="none" xmlns="http://www.w3.org/2000/svg">
<g clip-path="url(#clip0_2001_5410)">
<path d="M44.3874 10.6289H13.6131C13.4849 10.6289 13.3565 10.6289 13.2285 10.6296C13.1205 10.6305 13.0127 10.6316 12.9047 10.6346C12.6693 10.6409 12.432 10.655 12.1996 10.6966C11.9665 10.7366 11.7408 10.811 11.5296 10.9175C11.1052 11.1333 10.7603 11.4783 10.5444 11.9027C10.4377 12.1139 10.3633 12.3399 10.3236 12.5731C10.2815 12.8057 10.2676 13.0428 10.2613 13.2779C10.2585 13.3859 10.2569 13.4938 10.2563 13.6018C10.2559 13.7296 10.2559 13.8577 10.2559 13.9862V31.2714C10.2559 31.3998 10.2559 31.5278 10.2563 31.6562C10.257 31.764 10.2584 31.8721 10.2613 31.9801C10.2676 32.2147 10.2817 32.4521 10.3236 32.6845C10.3632 32.9177 10.4376 33.1437 10.5442 33.3549C10.6514 33.5658 10.7912 33.7585 10.9587 33.9257C11.1258 34.0931 11.3184 34.233 11.5294 34.3401C11.7439 34.4495 11.9636 34.5191 12.1998 34.5614C12.432 34.6029 12.6693 34.6169 12.9047 34.6232C13.0127 34.6257 13.1205 34.6271 13.2285 34.6278C13.3565 34.6287 13.4849 34.6287 13.6131 34.6287H44.3874C44.5154 34.6287 44.6438 34.6287 44.7718 34.6278C44.8796 34.6273 44.9874 34.6257 45.0959 34.6232C45.3308 34.6169 45.5681 34.6029 45.801 34.5614C46.0341 34.5214 46.2599 34.4469 46.4709 34.3401C46.8951 34.124 47.24 33.7791 47.4561 33.3549C47.5655 33.1404 47.6348 32.9207 47.6767 32.6845C47.7189 32.4521 47.7325 32.2147 47.7388 31.9801C47.7417 31.8721 47.7433 31.764 47.7438 31.6562C47.7447 31.5278 47.7447 31.3998 47.7447 31.2714V13.9864C47.7447 13.858 47.7447 13.7298 47.7438 13.6016C47.7433 13.4937 47.7417 13.3858 47.7388 13.2779C47.7325 13.0428 47.7189 12.8057 47.6767 12.5731C47.6373 12.3398 47.5629 12.1138 47.4561 11.9027C47.2402 11.4784 46.8952 11.1334 46.4709 10.9175C46.2598 10.8111 46.034 10.7367 45.801 10.6969C45.5681 10.655 45.3308 10.6411 45.0959 10.6348C44.9879 10.6321 44.8798 10.6304 44.7718 10.6298C44.6438 10.6289 44.5154 10.6289 44.3874 10.6289Z" fill="black"/>
<path d="M44.3873 11.4297L44.766 11.4304C44.8683 11.431 44.9709 11.4322 45.074 11.4349C45.2536 11.4399 45.4633 11.4496 45.659 11.4847C45.8289 11.5153 45.9716 11.5617 46.1084 11.6315C46.3821 11.7707 46.6045 11.9933 46.7434 12.2672C46.8128 12.4031 46.859 12.5449 46.8895 12.7164C46.9244 12.9098 46.9342 13.1202 46.9389 13.3007C46.9419 13.4026 46.9432 13.5046 46.9434 13.6087C46.9446 13.7349 46.9446 13.8608 46.9446 13.9872V31.2725C46.9446 31.3988 46.9446 31.5248 46.9437 31.6534C46.9432 31.7553 46.9418 31.8573 46.9391 31.9592C46.9341 32.1395 46.9244 32.3499 46.8891 32.5456C46.8634 32.7012 46.8141 32.8521 46.743 32.9929C46.6038 33.2669 46.3811 33.4895 46.107 33.6286C45.9711 33.6979 45.8289 33.7444 45.6606 33.7747C45.4611 33.8103 45.2423 33.82 45.0776 33.8246C44.9741 33.8268 44.8711 33.8284 44.7653 33.8289C44.6396 33.8298 44.5132 33.8298 44.3873 33.8298H13.608C13.4834 33.8298 13.3588 33.8298 13.232 33.8289C13.1301 33.8284 13.0282 33.8271 12.9262 33.8248C12.7577 33.8203 12.5389 33.8103 12.341 33.775C12.1845 33.7489 12.0328 33.6992 11.8912 33.6277C11.7553 33.5587 11.6313 33.4685 11.5238 33.3605C11.416 33.2528 11.3259 33.1288 11.257 32.9929C11.1858 32.8513 11.1365 32.6997 11.1107 32.5433C11.0754 32.3478 11.0654 32.1383 11.0609 31.9594C11.0583 31.8571 11.0568 31.7548 11.0563 31.6525L11.0557 31.352V13.9079L11.0561 13.6078C11.0566 13.5054 11.0581 13.4029 11.0606 13.3005C11.0656 13.1211 11.0754 12.9116 11.1109 12.7146C11.1368 12.5585 11.1861 12.4072 11.2572 12.2659C11.3261 12.1304 11.4158 12.0068 11.5245 11.8983C11.6322 11.7904 11.7564 11.7002 11.8923 11.631C12.0336 11.56 12.1848 11.5107 12.3408 11.4847C12.5367 11.4496 12.7466 11.4399 12.9265 11.4349C13.0288 11.4322 13.1314 11.431 13.2331 11.4304L13.613 11.4297H44.3873Z" fill="white"/>
<path d="M20.1097 18.7306C20.4277 18.3331 20.6433 17.7993 20.5864 17.2539C20.1212 17.277 19.5536 17.5608 19.2248 17.9587C18.9297 18.2994 18.6685 18.8554 18.7365 19.3779C19.2587 19.4232 19.7806 19.117 20.1097 18.7306Z" fill="black"/>
<path d="M20.5804 19.4796C19.8216 19.4343 19.177 19.9099 18.8149 19.9099C18.4525 19.9099 17.8978 19.5023 17.2978 19.5134C16.5171 19.5247 15.7928 19.9663 15.3965 20.6684C14.5816 22.0727 15.1813 24.1564 15.974 25.3002C16.3588 25.8664 16.8227 26.4892 17.4337 26.4668C18.0113 26.4442 18.2376 26.0931 18.9392 26.0931C19.6407 26.0931 19.8445 26.4668 20.4558 26.4555C21.0895 26.4442 21.4859 25.8893 21.8707 25.323C22.3123 24.6775 22.4928 24.0547 22.5042 24.0207C22.4928 24.0094 21.282 23.5449 21.2707 22.152C21.2594 20.9855 22.2215 20.4306 22.2668 20.3964C21.7235 19.5928 20.8746 19.5023 20.5801 19.4796" fill="black"/>
<path d="M28.1419 17.9023C29.7903 17.9023 30.9384 19.0386 30.9384 20.6929C30.9384 22.3531 29.7668 23.4953 28.1007 23.4953H26.2757V26.398H24.957V17.9023H28.1419ZM26.2757 22.3884H27.7886C28.9369 22.3884 29.5901 21.7703 29.5901 20.6988C29.5901 19.6275 28.9367 19.0151 27.7945 19.0151H26.2757V22.3884Z" fill="black"/>
<path d="M31.2656 24.6384C31.2656 23.5492 32.0957 22.9252 33.6263 22.831L35.2688 22.7309V22.2598C35.2688 21.5713 34.8156 21.1944 34.0091 21.1944C33.3437 21.1944 32.8608 21.5357 32.7611 22.0596H31.5716C31.6072 20.9588 32.6431 20.1582 34.0444 20.1582C35.5515 20.1582 36.5347 20.9471 36.5347 22.1717V26.3987H35.3162V25.3802H35.2867C34.9393 26.0454 34.1738 26.4632 33.3437 26.4632C32.1193 26.4632 31.2656 25.7335 31.2656 24.6384ZM35.2688 24.091V23.614L33.803 23.7082C32.9786 23.7612 32.5491 24.0672 32.5491 24.6028C32.5491 25.121 32.9965 25.4567 33.697 25.4567C34.5916 25.4567 35.2688 24.8855 35.2688 24.091Z" fill="black"/>
<path d="M37.6554 28.6707V27.6524C37.7378 27.6639 37.9378 27.6757 38.0438 27.6757C38.6266 27.6757 38.9564 27.4288 39.1566 26.7926L39.2743 26.416L37.043 20.2344H38.4205L39.9749 25.2502H40.0043L41.5585 20.2344H42.9009L40.5871 26.7278C40.0571 28.2175 39.4508 28.7062 38.1675 28.7062C38.0674 28.7062 37.7435 28.6945 37.6554 28.6707Z" fill="black"/>
</g>
<defs>
<clipPath id="clip0_2001_5410">
<rect width="38" height="24" fill="white" transform="translate(10 10.6289)"/>
</clipPath>
</defs>
</svg>
