<svg width="48" height="12" viewBox="0 0 48 12" fill="none" xmlns="http://www.w3.org/2000/svg">
<path d="M4.87891 0.265625V2.75H7.87109V4.50781H4.87891V8.64844C4.87891 9.03906 4.97266 9.32031 5.16016 9.49219C5.35286 9.65885 5.67057 9.74219 6.11328 9.74219H7.87109V11.5H5.94922C4.63672 11.5 3.7487 11.2917 3.28516 10.875C2.82161 10.4531 2.58984 9.67448 2.58984 8.53906V4.50781H0.355469V2.75H2.58984V0.265625H4.87891ZM17.7383 11.0703C17.207 11.2891 16.6654 11.4531 16.1133 11.5625C15.5612 11.6719 14.9779 11.7266 14.3633 11.7266C12.8997 11.7266 11.7799 11.3359 11.0039 10.5547C10.2331 9.76823 9.84766 8.63802 9.84766 7.16406C9.84766 5.73698 10.2201 4.60938 10.9648 3.78125C11.7096 2.95312 12.7253 2.53906 14.0117 2.53906C15.3086 2.53906 16.3138 2.92448 17.0273 3.69531C17.7461 4.46094 18.1055 5.54167 18.1055 6.9375V7.86719H12.1758C12.181 8.55469 12.3841 9.06771 12.7852 9.40625C13.1862 9.74479 13.7852 9.91406 14.582 9.91406C15.1081 9.91406 15.6263 9.83854 16.1367 9.6875C16.6471 9.53646 17.181 9.29688 17.7383 8.96875V11.0703ZM15.8008 6.14844C15.7904 5.54427 15.6341 5.08854 15.332 4.78125C15.0352 4.46875 14.5951 4.3125 14.0117 4.3125C13.4857 4.3125 13.0664 4.47396 12.7539 4.79688C12.4414 5.11458 12.2565 5.56771 12.1992 6.15625L15.8008 6.14844ZM27.7617 5.16406C27.5117 4.9349 27.2174 4.76302 26.8789 4.64844C26.5456 4.53385 26.1784 4.47656 25.7773 4.47656C25.293 4.47656 24.8685 4.5625 24.5039 4.73438C24.1445 4.90104 23.8659 5.14583 23.668 5.46875C23.543 5.66667 23.4544 5.90625 23.4023 6.1875C23.3555 6.46875 23.332 6.89583 23.332 7.46875V11.5H21.043V2.75H23.332V4.10938C23.556 3.60938 23.8997 3.22396 24.3633 2.95312C24.8268 2.67708 25.3685 2.53906 25.9883 2.53906C26.3008 2.53906 26.6055 2.57812 26.9023 2.65625C27.2044 2.72917 27.4909 2.83854 27.7617 2.98438V5.16406ZM36.7773 5.82031V11.5H34.5039V6.17188C34.5039 5.53646 34.4128 5.08333 34.2305 4.8125C34.0534 4.53646 33.7617 4.39844 33.3555 4.39844C32.944 4.39844 32.6185 4.58333 32.3789 4.95312C32.1445 5.32292 32.0273 5.83594 32.0273 6.49219V11.5H29.7539V2.75H32.0273V4.0625C32.1888 3.57812 32.4648 3.20312 32.8555 2.9375C33.2461 2.67188 33.7174 2.53906 34.2695 2.53906C35.0977 2.53906 35.7227 2.8151 36.1445 3.36719C36.5664 3.91406 36.7773 4.73177 36.7773 5.82031ZM42.8633 0.890625C43.5247 0.890625 44.1393 1.00781 44.707 1.24219C45.2747 1.47656 45.793 1.82812 46.2617 2.29688C46.7305 2.77083 47.0846 3.29427 47.3242 3.86719C47.5638 4.4401 47.6836 5.05469 47.6836 5.71094C47.6836 6.36198 47.5638 6.97135 47.3242 7.53906C47.0898 8.10677 46.7357 8.6276 46.2617 9.10156C45.7878 9.57552 45.2669 9.93229 44.6992 10.1719C44.1315 10.4062 43.5195 10.5234 42.8633 10.5234C42.2122 10.5234 41.6029 10.4062 41.0352 10.1719C40.4674 9.93229 39.9466 9.57552 39.4727 9.10156C38.9987 8.6276 38.6419 8.10677 38.4023 7.53906C38.168 6.97135 38.0508 6.36198 38.0508 5.71094C38.0508 5.05469 38.1706 4.4401 38.4102 3.86719C38.6497 3.29427 39.0039 2.77083 39.4727 2.29688C39.9414 1.82812 40.4596 1.47656 41.0273 1.24219C41.5951 1.00781 42.207 0.890625 42.8633 0.890625ZM42.6445 4.125H42.1445V5.40625H42.6445C42.9414 5.40625 43.1628 5.35417 43.3086 5.25C43.4596 5.14583 43.5352 4.98958 43.5352 4.78125C43.5352 4.55729 43.4622 4.39323 43.3164 4.28906C43.1706 4.17969 42.9466 4.125 42.6445 4.125ZM42.7852 3.25781C43.4779 3.25781 43.9909 3.3724 44.3242 3.60156C44.6628 3.83073 44.832 4.17969 44.832 4.64844C44.832 4.98698 44.7305 5.26823 44.5273 5.49219C44.3242 5.71094 44.0378 5.85156 43.668 5.91406C43.8659 5.98698 44.0352 6.09635 44.1758 6.24219C44.3216 6.38802 44.457 6.58854 44.582 6.84375L45.1992 8.14062H43.8555L43.3633 7.10156C43.2227 6.79948 43.0768 6.58854 42.9258 6.46875C42.7799 6.34375 42.6003 6.27604 42.3867 6.26562H42.1445V8.14062H40.8633V3.25781H42.7852ZM42.8633 1.89844C42.3477 1.89844 41.8685 1.99219 41.4258 2.17969C40.9831 2.36198 40.5716 2.64323 40.1914 3.02344C39.8216 3.39323 39.543 3.80208 39.3555 4.25C39.168 4.69792 39.0742 5.1849 39.0742 5.71094C39.0742 6.22135 39.168 6.69792 39.3555 7.14062C39.543 7.58333 39.8216 7.9974 40.1914 8.38281C40.5664 8.7526 40.9753 9.03125 41.418 9.21875C41.8659 9.40625 42.3477 9.5 42.8633 9.5C43.3789 9.5 43.8607 9.40625 44.3086 9.21875C44.7565 9.03125 45.1654 8.7526 45.5352 8.38281C45.9102 7.9974 46.1914 7.58333 46.3789 7.14062C46.5664 6.69792 46.6602 6.22135 46.6602 5.71094C46.6602 5.1849 46.5664 4.69792 46.3789 4.25C46.1914 3.80208 45.9102 3.39323 45.5352 3.02344C45.1602 2.64323 44.7513 2.36198 44.3086 2.17969C43.8711 1.99219 43.3893 1.89844 42.8633 1.89844Z" fill="black"/>
</svg>
