<svg width="58" height="45" viewBox="0 0 58 45" fill="none" xmlns="http://www.w3.org/2000/svg">
<g clip-path="url(#clip0_2001_5429)">
<path opacity="0.07" d="M45 10.6289H13C11.3 10.6289 10 11.9289 10 13.6289V31.6289C10 33.3289 11.4 34.6289 13 34.6289H45C46.7 34.6289 48 33.3289 48 31.6289V13.6289C48 11.9289 46.6 10.6289 45 10.6289Z" fill="black"/>
<path d="M45 11.6289C46.1 11.6289 47 12.5289 47 13.6289V31.6289C47 32.7289 46.1 33.6289 45 33.6289H13C11.9 33.6289 11 32.7289 11 31.6289V13.6289C11 12.5289 11.9 11.6289 13 11.6289H45Z" fill="white"/>
<path d="M25 29.6289C28.866 29.6289 32 26.4949 32 22.6289C32 18.7629 28.866 15.6289 25 15.6289C21.134 15.6289 18 18.7629 18 22.6289C18 26.4949 21.134 29.6289 25 29.6289Z" fill="#EB001B"/>
<path d="M33 29.6289C36.866 29.6289 40 26.4949 40 22.6289C40 18.7629 36.866 15.6289 33 15.6289C29.134 15.6289 26 18.7629 26 22.6289C26 26.4949 29.134 29.6289 33 29.6289Z" fill="#F79E1B"/>
<path d="M32 22.6297C32 20.2297 30.8 18.1297 29 16.9297C27.2 18.2297 26 20.3297 26 22.6297C26 24.9297 27.2 27.1297 29 28.3297C30.8 27.1297 32 25.0297 32 22.6297Z" fill="#FF5F00"/>
</g>
<defs>
<clipPath id="clip0_2001_5429">
<rect width="38" height="24" fill="white" transform="translate(10 10.6289)"/>
</clipPath>
</defs>
</svg>
