<svg width="58" height="45" viewBox="0 0 58 45" fill="none" xmlns="http://www.w3.org/2000/svg">
<g clip-path="url(#clip0_2001_5439)">
<path opacity="0.07" d="M45 10.6289H13C11.3 10.6289 10 11.9289 10 13.6289V31.6289C10 33.3289 11.4 34.6289 13 34.6289H45C46.7 34.6289 48 33.3289 48 31.6289V13.6289C48 11.9289 46.6 10.6289 45 10.6289Z" fill="black"/>
<path d="M45 11.6289C46.1 11.6289 47 12.5289 47 13.6289V31.6289C47 32.7289 46.1 33.6289 45 33.6289H13C11.9 33.6289 11 32.7289 11 31.6289V13.6289C11 12.5289 11.9 11.6289 13 11.6289H45Z" fill="white"/>
<path d="M38.3 20.7289H38C37.6 21.7289 37.3 22.2289 37 23.7289H38.9C38.6 22.2289 38.6 21.5289 38.3 20.7289ZM41.2 26.6289H39.5C39.4 26.6289 39.4 26.6289 39.3 26.5289L39.1 25.6289L39 25.4289H36.6C36.5 25.4289 36.4 25.4289 36.4 25.6289L36.1 26.5289C36.1 26.6289 36 26.6289 36 26.6289H33.9L34.1 26.1289L37 19.3289C37 18.8289 37.3 18.6289 37.8 18.6289H39.3C39.4 18.6289 39.5 18.6289 39.5 18.8289L40.9 25.3289C41 25.7289 41.1 26.0289 41.1 26.4289C41.2 26.5289 41.2 26.5289 41.2 26.6289ZM27.8 26.3289L28.2 24.5289C28.3 24.5289 28.4 24.6289 28.4 24.6289C29.1 24.9289 29.8 25.1289 30.5 25.0289C30.7 25.0289 31 24.9289 31.2 24.8289C31.7 24.6289 31.7 24.1289 31.3 23.7289C31.1 23.5289 30.8 23.4289 30.5 23.2289C30.1 23.0289 29.7 22.8289 29.4 22.5289C28.2 21.5289 28.6 20.1289 29.3 19.4289C29.9 19.0289 30.2 18.6289 31 18.6289C32.2 18.6289 33.5 18.6289 34.1 18.8289H34.2C34.1 19.4289 34 19.9289 33.8 20.5289C33.3 20.3289 32.8 20.1289 32.3 20.1289C32 20.1289 31.7 20.1289 31.4 20.2289C31.2 20.2289 31.1 20.3289 31 20.4289C30.8 20.6289 30.8 20.9289 31 21.1289L31.5 21.5289C31.9 21.7289 32.3 21.9289 32.6 22.1289C33.1 22.4289 33.6 22.9289 33.7 23.5289C33.9 24.4289 33.6 25.2289 32.8 25.8289C32.3 26.2289 32.1 26.4289 31.4 26.4289C30 26.4289 28.9 26.5289 28 26.2289C27.9 26.4289 27.9 26.4289 27.8 26.3289ZM24.3 26.6289C24.4 25.9289 24.4 25.9289 24.5 25.6289C25 23.4289 25.5 21.1289 25.9 18.9289C26 18.7289 26 18.6289 26.2 18.6289H28C27.8 19.8289 27.6 20.7289 27.3 21.8289C27 23.3289 26.7 24.8289 26.3 26.3289C26.3 26.5289 26.2 26.5289 26 26.5289M15 18.8289C15 18.7289 15.2 18.6289 15.3 18.6289H18.7C19.2 18.6289 19.6 18.9289 19.7 19.4289L20.6 23.8289C20.6 23.9289 20.6 23.9289 20.7 24.0289C20.7 23.9289 20.8 23.9289 20.8 23.9289L22.9 18.8289C22.8 18.7289 22.9 18.6289 23 18.6289H25.1C25.1 18.7289 25.1 18.7289 25 18.8289L21.9 26.1289C21.8 26.3289 21.8 26.4289 21.7 26.5289C21.6 26.6289 21.4 26.5289 21.2 26.5289H19.7C19.6 26.5289 19.5 26.5289 19.5 26.3289L17.9 20.1289C17.7 19.9289 17.4 19.6289 17 19.5289C16.4 19.2289 15.3 19.0289 15.1 19.0289L15 18.8289Z" fill="#142688"/>
</g>
<defs>
<clipPath id="clip0_2001_5439">
<rect width="38" height="24" fill="white" transform="translate(10 10.6289)"/>
</clipPath>
</defs>
</svg>
