<svg width="68" height="68" viewBox="0 0 68 68" fill="none" xmlns="http://www.w3.org/2000/svg">
<g filter="url(#filter0_d_2001_9166)">
<rect x="4" y="2" width="60" height="60" rx="30" fill="#EBEBEB" shape-rendering="crispEdges"/>
<g clip-path="url(#clip0_2001_9166)">
<path d="M34 18C26.272 18 20 24.272 20 32C20 39.728 26.272 46 34 46H42.624V43.032C45.9 40.456 48 36.48 48 32C48 24.272 41.728 18 34 18ZM28.96 33.26C28.26 33.26 27.7 32.7 27.7 32C27.7 31.3 28.26 30.74 28.96 30.74C29.66 30.74 30.22 31.3 30.22 32C30.22 32.7 29.66 33.26 28.96 33.26ZM34 33.26C33.3 33.26 32.74 32.7 32.74 32C32.74 31.3 33.3 30.74 34 30.74C34.7 30.74 35.26 31.3 35.26 32C35.26 32.7 34.7 33.26 34 33.26ZM39.04 33.26C38.34 33.26 37.78 32.7 37.78 32C37.78 31.3 38.34 30.74 39.04 30.74C39.74 30.74 40.3 31.3 40.3 32C40.3 32.7 39.74 33.26 39.04 33.26Z" fill="#161616"/>
</g>
</g>
<defs>
<filter id="filter0_d_2001_9166" x="0" y="0" width="68" height="68" filterUnits="userSpaceOnUse" color-interpolation-filters="sRGB">
<feFlood flood-opacity="0" result="BackgroundImageFix"/>
<feColorMatrix in="SourceAlpha" type="matrix" values="0 0 0 0 0 0 0 0 0 0 0 0 0 0 0 0 0 0 127 0" result="hardAlpha"/>
<feOffset dy="2"/>
<feGaussianBlur stdDeviation="2"/>
<feComposite in2="hardAlpha" operator="out"/>
<feColorMatrix type="matrix" values="0 0 0 0 0.0862745 0 0 0 0 0.0862745 0 0 0 0 0.0862745 0 0 0 0.16 0"/>
<feBlend mode="normal" in2="BackgroundImageFix" result="effect1_dropShadow_2001_9166"/>
<feBlend mode="normal" in="SourceGraphic" in2="effect1_dropShadow_2001_9166" result="shape"/>
</filter>
<clipPath id="clip0_2001_9166">
<rect width="28" height="28" fill="white" transform="translate(20 18)"/>
</clipPath>
</defs>
</svg>
