<svg width="43" height="42" viewBox="0 0 43 42" fill="none" xmlns="http://www.w3.org/2000/svg">
<g clip-path="url(#clip0_2001_8763)">
<g clip-path="url(#clip1_2001_8763)">
<path d="M32.9896 16.2654C36.8372 16.2654 39.9563 13.1463 39.9563 9.29869C39.9563 5.45111 36.8372 2.33203 32.9896 2.33203C29.142 2.33203 26.0229 5.45111 26.0229 9.29869C26.0229 13.1463 29.142 16.2654 32.9896 16.2654Z" stroke="#0FA958" stroke-width="4.64444"/>
<path d="M9.7694 39.488C13.617 39.488 16.7361 36.3689 16.7361 32.5214C16.7361 28.6738 13.617 25.5547 9.7694 25.5547C5.92182 25.5547 2.80273 28.6738 2.80273 32.5214C2.80273 36.3689 5.92182 39.488 9.7694 39.488Z" stroke="#0FA958" stroke-width="4.64444"/>
<path d="M39.9563 25.5537H26.0229V39.4871H39.9563V25.5537Z" stroke="#0FA958" stroke-width="4.64444"/>
<path d="M16.7361 2.33203H2.80273V16.2654H16.7361V2.33203Z" stroke="#0FA958" stroke-width="4.64444"/>
</g>
</g>
<defs>
<clipPath id="clip0_2001_8763">
<rect width="42.9" height="41.8" fill="white" transform="translate(0.0302734 0.00976562)"/>
</clipPath>
<clipPath id="clip1_2001_8763">
<rect width="42.9" height="41.8" fill="white" transform="translate(0.0302734 0.00976562)"/>
</clipPath>
</defs>
</svg>
