<svg width="42" height="41" viewBox="0 0 42 41" fill="none" xmlns="http://www.w3.org/2000/svg">
<g clip-path="url(#clip0_2001_8737)">
<g clip-path="url(#clip1_2001_8737)">
<g clip-path="url(#clip2_2001_8737)">
<path d="M17.6167 0.259766H24.4L22.1389 20.6098H19.8778L17.6167 0.259766Z" fill="#C7B9FF"/>
<path d="M24.4014 40.9594H17.6182L19.8792 20.6094H22.1404L24.4014 40.9594Z" fill="#C7B9FF"/>
<path d="M9.01872 37.3979L4.22217 32.6013L20.2106 19.8105L21.8095 21.4094L9.01872 37.3979Z" fill="#C7B9FF"/>
<path d="M33.0008 3.82227L37.7973 8.6188L21.8088 21.4096L20.21 19.8108L33.0008 3.82227Z" fill="#C7B9FF"/>
<path d="M4.22363 8.6188L9.02017 3.82227L21.811 19.8107L20.2122 21.4096L4.22363 8.6188Z" fill="#C7B9FF"/>
<path d="M37.7993 32.6013L33.0027 37.3979L20.2119 21.4094L21.8108 19.8105L37.7993 32.6013Z" fill="#C7B9FF"/>
<path d="M0.661621 24.001V17.2178L21.0116 19.4788V21.74L0.661621 24.001Z" fill="#C7B9FF"/>
<path d="M41.3612 17.2178V24.0011L21.0112 21.7401V19.4789L41.3612 17.2178Z" fill="#C7B9FF"/>
</g>
</g>
</g>
<defs>
<clipPath id="clip0_2001_8737">
<rect width="41.8" height="40.7" fill="white" transform="translate(0.180176 0.259766)"/>
</clipPath>
<clipPath id="clip1_2001_8737">
<rect width="41.8" height="40.7" fill="white" transform="translate(0.180176 0.259766)"/>
</clipPath>
<clipPath id="clip2_2001_8737">
<rect width="41.8" height="40.7" fill="white" transform="translate(0.180176 0.259766)"/>
</clipPath>
</defs>
</svg>
