<svg width="43" height="42" viewBox="0 0 43 42" fill="none" xmlns="http://www.w3.org/2000/svg">
<g clip-path="url(#clip0_2001_8773)">
<g clip-path="url(#clip1_2001_8773)">
<path d="M23.7728 0.458008H19.228V11.8198H23.7728V0.458008Z" fill="#FFC700"/>
<path d="M23.7728 29.999H19.228V41.3608H23.7728V29.999Z" fill="#FFC700"/>
<path d="M8.32522 4.55955L5.14746 7.7373L13.6341 16.224L16.8119 13.0462L8.32522 4.55955Z" fill="#FFC700"/>
<path d="M29.2197 25.4541L26.042 28.6318L34.5287 37.1185L37.7064 33.9408L29.2197 25.4541Z" fill="#FFC700"/>
<path d="M34.5312 4.55955L37.709 7.7373L29.2223 16.224L26.0445 13.0462L34.5312 4.55955Z" fill="#FFC700"/>
<path d="M13.6367 25.4541L16.8145 28.6318L8.32776 37.1185L5.15 33.9408L13.6367 25.4541Z" fill="#FFC700"/>
<path d="M1.04785 18.6379L1.04785 23.1826H12.4096V18.6379H1.04785Z" fill="#FFC700"/>
<path d="M30.5889 18.6379V23.1826H41.9507V18.6379H30.5889Z" fill="#FFC700"/>
</g>
</g>
<defs>
<clipPath id="clip0_2001_8773">
<rect width="41.8" height="41.8" fill="white" transform="translate(0.600098 0.00976562)"/>
</clipPath>
<clipPath id="clip1_2001_8773">
<rect width="41.8" height="41.8" fill="white" transform="translate(0.600098 0.00976562)"/>
</clipPath>
</defs>
</svg>
