<svg width="42" height="42" viewBox="0 0 42 42" fill="none" xmlns="http://www.w3.org/2000/svg">
<path d="M21.0842 22.9717C14.267 22.9717 11.9946 28.2962 11.9946 32.0612C11.9946 35.8262 14.267 41.1507 21.084 41.1507H36.9907V34.3335H21.084C19.8291 34.3335 18.8118 33.3163 18.8118 32.0612C18.8118 30.8062 19.8291 29.7889 21.084 29.7889H32.4459C36.9907 29.7889 41.5355 27.5165 41.5355 20.6994C41.5355 13.8822 36.7634 11.6098 32.4459 11.6098H9.72228C8.46729 11.6098 7.44992 10.5925 7.44992 9.33752C7.44992 8.08252 8.46729 7.06515 9.72228 7.06515H26.765C28.6475 7.06515 30.1736 5.53909 30.1736 3.65659C30.1736 1.77411 28.6475 0.248047 26.765 0.248047H9.72228C2.90517 0.248047 0.632812 5.57254 0.632812 9.33752C0.632812 13.1025 2.90517 18.427 9.72228 18.427H32.4459C33.7009 18.427 34.7183 19.4444 34.7183 20.6994C34.7183 21.9544 33.7009 22.9717 32.4459 22.9717H21.0842Z" fill="#FFC700"/>
</svg>
