<svg width="50" height="51" viewBox="0 0 50 51" fill="none" xmlns="http://www.w3.org/2000/svg">
<path fill-rule="evenodd" clip-rule="evenodd" d="M25 50.8789C38.8071 50.8789 50 39.686 50 25.8789C50 12.0718 38.8071 0.878906 25 0.878906C11.1929 0.878906 0 12.0718 0 25.8789C0 39.686 11.1929 50.8789 25 50.8789ZM26.136 38.2949H23.064V19.6709C22.168 20.5989 21.304 21.4629 20.408 22.3589L17.144 25.6549L15 23.4789L24.6 13.8789L34.2 23.4789L32.056 25.6549L28.824 22.3589C28.5254 22.0603 28.2267 21.7652 27.9281 21.4701C27.3307 20.8798 26.7334 20.2896 26.136 19.6709V38.2949Z" fill="black"/>
</svg>
